<svg preserveAspectRatio="none" width="100%" height="100%" overflow="visible" style="display: block;" viewBox="0 0 17.998 17.998" fill="none" xmlns="http://www.w3.org/2000/svg">
<g id="Icon" clip-path="url(#clip0_0_45)">
<path id="Vector" d="M1.49984 5.24943L4.80698 1.94229C4.94651 1.80193 5.11243 1.69057 5.2952 1.61463C5.47796 1.53869 5.67395 1.49968 5.87186 1.49984H12.1262C12.3241 1.49968 12.5201 1.53869 12.7028 1.61463C12.8856 1.69057 13.0515 1.80193 13.1911 1.94229L16.4982 5.24943" stroke="var(--stroke-0, #1D7C5F)" stroke-width="1.49984" stroke-linecap="round" stroke-linejoin="round"/>
<path id="Vector_2" d="M2.99967 8.99902V14.9984C2.99967 15.3962 3.15769 15.7776 3.43897 16.0589C3.72024 16.3402 4.10173 16.4982 4.49951 16.4982H13.4985C13.8963 16.4982 14.2778 16.3402 14.5591 16.0589C14.8404 15.7776 14.9984 15.3962 14.9984 14.9984V8.99902" stroke="var(--stroke-0, #1D7C5F)" stroke-width="1.49984" stroke-linecap="round" stroke-linejoin="round"/>
<path id="Vector_3" d="M11.2488 16.4982V13.4985C11.2488 13.1008 11.0908 12.7193 10.8095 12.438C10.5282 12.1567 10.1467 11.9987 9.74894 11.9987H8.2491C7.85132 11.9987 7.46983 12.1567 7.18856 12.438C6.90729 12.7193 6.74927 13.1008 6.74927 13.4985V16.4982" stroke="var(--stroke-0, #1D7C5F)" stroke-width="1.49984" stroke-linecap="round" stroke-linejoin="round"/>
<path id="Vector_4" d="M1.49984 5.24943H16.4982" stroke="var(--stroke-0, #1D7C5F)" stroke-width="1.49984" stroke-linecap="round" stroke-linejoin="round"/>
<path id="Vector_5" d="M16.4982 5.24943V7.49919C16.4982 7.89697 16.3402 8.27846 16.0589 8.55973C15.7776 8.841 15.3962 8.99902 14.9984 8.99902C14.5602 8.97491 14.1418 8.8091 13.806 8.52657C13.7165 8.46191 13.6089 8.42711 13.4985 8.42711C13.3881 8.42711 13.2805 8.46191 13.1911 8.52657C12.8553 8.8091 12.4368 8.97491 11.9987 8.99902C11.5605 8.97491 11.1421 8.8091 10.8063 8.52657C10.7168 8.46191 10.6093 8.42711 10.4989 8.42711C10.3885 8.42711 10.2809 8.46191 10.1914 8.52657C9.85563 8.8091 9.43717 8.97491 8.99902 8.99902C8.56087 8.97491 8.14241 8.8091 7.80665 8.52657C7.71717 8.46191 7.60958 8.42711 7.49919 8.42711C7.38879 8.42711 7.2812 8.46191 7.19172 8.52657C6.85596 8.8091 6.4375 8.97491 5.99935 8.99902C5.5612 8.97491 5.14274 8.8091 4.80698 8.52657C4.7175 8.46191 4.60991 8.42711 4.49951 8.42711C4.38911 8.42711 4.28152 8.46191 4.19205 8.52657C3.85628 8.8091 3.43783 8.97491 2.99967 8.99902C2.60189 8.99902 2.2204 8.841 1.93913 8.55973C1.65786 8.27846 1.49984 7.89697 1.49984 7.49919V5.24943" stroke="var(--stroke-0, #1D7C5F)" stroke-width="1.49984" stroke-linecap="round" stroke-linejoin="round"/>
</g>
<defs>
<clipPath id="clip0_0_45">
<rect width="17.998" height="17.998" fill="white"/>
</clipPath>
</defs>
</svg>
