<svg preserveAspectRatio="none" width="100%" height="100%" overflow="visible" style="display: block;" viewBox="0 0 31.9922 31.9922" fill="none" xmlns="http://www.w3.org/2000/svg">
<g id="Icon">
<path id="Vector" d="M2.66602 9.33105L8.54458 3.45249C8.7926 3.20299 9.08754 3.00505 9.41241 2.87007C9.73728 2.73509 10.0857 2.66574 10.4375 2.66602H21.5547C21.9065 2.66574 22.2549 2.73509 22.5798 2.87007C22.9046 3.00505 23.1996 3.20299 23.4476 3.45249L29.3262 9.33105" stroke="var(--stroke-0, white)" stroke-width="2.66602" stroke-linecap="round" stroke-linejoin="round"/>
<path id="Vector_2" d="M5.33203 15.9961V26.6602C5.33203 27.3672 5.61291 28.0453 6.11289 28.5453C6.61286 29.0453 7.29098 29.3262 7.99805 29.3262H23.9941C24.7012 29.3262 25.3793 29.0453 25.8793 28.5453C26.3793 28.0453 26.6602 27.3672 26.6602 26.6602V15.9961" stroke="var(--stroke-0, white)" stroke-width="2.66602" stroke-linecap="round" stroke-linejoin="round"/>
<path id="Vector_3" d="M19.9951 29.3262V23.9941C19.9951 23.2871 19.7142 22.609 19.2143 22.109C18.7143 21.609 18.0362 21.3281 17.3291 21.3281H14.6631C13.956 21.3281 13.2779 21.609 12.7779 22.109C12.278 22.609 11.9971 23.2871 11.9971 23.9941V29.3262" stroke="var(--stroke-0, white)" stroke-width="2.66602" stroke-linecap="round" stroke-linejoin="round"/>
<path id="Vector_4" d="M2.66602 9.33105H29.3262" stroke="var(--stroke-0, white)" stroke-width="2.66602" stroke-linecap="round" stroke-linejoin="round"/>
<path id="Vector_5" d="M29.3262 9.33105V13.3301C29.3262 14.0371 29.0453 14.7153 28.5453 15.2152C28.0453 15.7152 27.3672 15.9961 26.6602 15.9961C25.8813 15.9532 25.1375 15.6585 24.5407 15.1563C24.3816 15.0414 24.1904 14.9795 23.9941 14.9795C23.7979 14.9795 23.6067 15.0414 23.4476 15.1563C22.8508 15.6585 22.107 15.9532 21.3281 15.9961C20.5493 15.9532 19.8055 15.6585 19.2086 15.1563C19.0496 15.0414 18.8583 14.9795 18.6621 14.9795C18.4659 14.9795 18.2746 15.0414 18.1156 15.1563C17.5187 15.6585 16.7749 15.9532 15.9961 15.9961C15.2173 15.9532 14.4734 15.6585 13.8766 15.1563C13.7176 15.0414 13.5263 14.9795 13.3301 14.9795C13.1338 14.9795 12.9426 15.0414 12.7835 15.1563C12.1867 15.6585 11.4429 15.9532 10.6641 15.9961C9.88523 15.9532 9.14141 15.6585 8.54458 15.1563C8.38553 15.0414 8.19428 14.9795 7.99805 14.9795C7.80181 14.9795 7.61057 15.0414 7.45151 15.1563C6.85469 15.6585 6.11086 15.9532 5.33203 15.9961C4.62496 15.9961 3.94685 15.7152 3.44687 15.2152C2.9469 14.7153 2.66602 14.0371 2.66602 13.3301V9.33105" stroke="var(--stroke-0, white)" stroke-width="2.66602" stroke-linecap="round" stroke-linejoin="round"/>
</g>
</svg>
