<svg preserveAspectRatio="none" width="100%" height="100%" overflow="visible" style="display: block;" viewBox="0 0 27.998 27.998" fill="none" xmlns="http://www.w3.org/2000/svg">
<g id="Icon">
<path id="Vector" d="M18.6654 24.4983V22.1651C18.6654 20.9275 18.1737 19.7406 17.2986 18.8655C16.4235 17.9904 15.2366 17.4988 13.999 17.4988H6.99951C5.76192 17.4988 4.57502 17.9904 3.69991 18.8655C2.8248 19.7406 2.33317 20.9275 2.33317 22.1651V24.4983" stroke="var(--stroke-0, #1D7C5F)" stroke-width="2.33317" stroke-linecap="round" stroke-linejoin="round"/>
<path id="Vector_2" d="M10.4993 12.8324C13.0764 12.8324 15.1656 10.7432 15.1656 8.1661C15.1656 5.58895 13.0764 3.49976 10.4993 3.49976C7.92212 3.49976 5.83293 5.58895 5.83293 8.1661C5.83293 10.7432 7.92212 12.8324 10.4993 12.8324Z" stroke="var(--stroke-0, #1D7C5F)" stroke-width="2.33317" stroke-linecap="round" stroke-linejoin="round"/>
<path id="Vector_3" d="M25.6649 24.4983V22.1651C25.6641 21.1312 25.32 20.1268 24.6865 19.3097C24.0531 18.4925 23.1662 17.9089 22.1651 17.6504" stroke="var(--stroke-0, #1D7C5F)" stroke-width="2.33317" stroke-linecap="round" stroke-linejoin="round"/>
<path id="Vector_4" d="M18.6654 3.65141C19.6691 3.90841 20.5588 4.49217 21.1941 5.31066C21.8294 6.12915 22.1743 7.1358 22.1743 8.17193C22.1743 9.20806 21.8294 10.2147 21.1941 11.0332C20.5588 11.8517 19.6691 12.4354 18.6654 12.6924" stroke="var(--stroke-0, #1D7C5F)" stroke-width="2.33317" stroke-linecap="round" stroke-linejoin="round"/>
</g>
</svg>
