<svg preserveAspectRatio="none" width="100%" height="100%" overflow="visible" style="display: block;" viewBox="0 0 20 20" fill="none" xmlns="http://www.w3.org/2000/svg">
<g id="Icon" clip-path="url(#clip0_0_51)">
<path id="Vector" d="M1.66667 5.83333L5.34167 2.15833C5.49671 2.00236 5.6811 1.87861 5.88419 1.79423C6.08729 1.70985 6.30507 1.66649 6.525 1.66667H13.475C13.6949 1.66649 13.9127 1.70985 14.1158 1.79423C14.3189 1.87861 14.5033 2.00236 14.6583 2.15833L18.3333 5.83333" stroke="var(--stroke-0, white)" stroke-width="1.66667" stroke-linecap="round" stroke-linejoin="round"/>
<path id="Vector_2" d="M3.33333 10V16.6667C3.33333 17.1087 3.50893 17.5326 3.82149 17.8452C4.13405 18.1577 4.55797 18.3333 5 18.3333H15C15.442 18.3333 15.866 18.1577 16.1785 17.8452C16.4911 17.5326 16.6667 17.1087 16.6667 16.6667V10" stroke="var(--stroke-0, white)" stroke-width="1.66667" stroke-linecap="round" stroke-linejoin="round"/>
<path id="Vector_3" d="M12.5 18.3333V15C12.5 14.558 12.3244 14.134 12.0118 13.8215C11.6993 13.5089 11.2754 13.3333 10.8333 13.3333H9.16667C8.72464 13.3333 8.30072 13.5089 7.98816 13.8215C7.6756 14.134 7.5 14.558 7.5 15V18.3333" stroke="var(--stroke-0, white)" stroke-width="1.66667" stroke-linecap="round" stroke-linejoin="round"/>
<path id="Vector_4" d="M1.66667 5.83333H18.3333" stroke="var(--stroke-0, white)" stroke-width="1.66667" stroke-linecap="round" stroke-linejoin="round"/>
<path id="Vector_5" d="M18.3333 5.83333V8.33333C18.3333 8.77536 18.1577 9.19928 17.8452 9.51184C17.5326 9.82441 17.1087 10 16.6667 10C16.1798 9.9732 15.7148 9.78895 15.3417 9.475C15.2422 9.40315 15.1227 9.36447 15 9.36447C14.8773 9.36447 14.7578 9.40315 14.6583 9.475C14.2852 9.78895 13.8202 9.9732 13.3333 10C12.8464 9.9732 12.3814 9.78895 12.0083 9.475C11.9089 9.40315 11.7893 9.36447 11.6667 9.36447C11.544 9.36447 11.4244 9.40315 11.325 9.475C10.9519 9.78895 10.4869 9.9732 10 10C9.51311 9.9732 9.04811 9.78895 8.675 9.475C8.57557 9.40315 8.45601 9.36447 8.33333 9.36447C8.21066 9.36447 8.0911 9.40315 7.99167 9.475C7.61856 9.78895 7.15355 9.9732 6.66667 10C6.17978 9.9732 5.71478 9.78895 5.34167 9.475C5.24223 9.40315 5.12268 9.36447 5 9.36447C4.87732 9.36447 4.75777 9.40315 4.65833 9.475C4.28523 9.78895 3.82022 9.9732 3.33333 10C2.89131 10 2.46738 9.82441 2.15482 9.51184C1.84226 9.19928 1.66667 8.77536 1.66667 8.33333V5.83333" stroke="var(--stroke-0, white)" stroke-width="1.66667" stroke-linecap="round" stroke-linejoin="round"/>
</g>
<defs>
<clipPath id="clip0_0_51">
<rect width="20" height="20" fill="white"/>
</clipPath>
</defs>
</svg>
