<svg preserveAspectRatio="none" width="100%" height="100%" overflow="visible" style="display: block;" viewBox="0 0 31.9922 31.9922" fill="none" xmlns="http://www.w3.org/2000/svg">
<g id="Icon">
<path id="Vector" d="M14.6631 28.9663C15.0684 29.2003 15.5281 29.3234 15.9961 29.3234C16.4641 29.3234 16.9238 29.2003 17.3291 28.9663L26.6602 23.6342C27.065 23.4005 27.4013 23.0643 27.6353 22.6596C27.8693 22.2548 27.9927 21.7956 27.9932 21.3281V10.6641C27.9927 10.1965 27.8693 9.73737 27.6353 9.3326C27.4013 8.92784 27.065 8.59172 26.6602 8.35796L17.3291 3.02593C16.9238 2.79194 16.4641 2.66875 15.9961 2.66875C15.5281 2.66875 15.0684 2.79194 14.6631 3.02593L5.33203 8.35796C4.92715 8.59172 4.59085 8.92784 4.35688 9.3326C4.12292 9.73737 3.9995 10.1965 3.99902 10.6641V21.3281C3.9995 21.7956 4.12292 22.2548 4.35688 22.6596C4.59085 23.0643 4.92715 23.4005 5.33203 23.6342L14.6631 28.9663Z" stroke="var(--stroke-0, white)" stroke-width="2.66602" stroke-linecap="round" stroke-linejoin="round"/>
<path id="Vector_2" d="M15.9961 29.3262V15.9961" stroke="var(--stroke-0, white)" stroke-width="2.66602" stroke-linecap="round" stroke-linejoin="round"/>
<path id="Vector_3" d="M4.3856 9.33105L15.9961 15.9961L27.6066 9.33105" stroke="var(--stroke-0, white)" stroke-width="2.66602" stroke-linecap="round" stroke-linejoin="round"/>
<path id="Vector_4" d="M9.99756 5.69194L21.9946 12.5569" stroke="var(--stroke-0, white)" stroke-width="2.66602" stroke-linecap="round" stroke-linejoin="round"/>
</g>
</svg>
