<svg preserveAspectRatio="none" width="100%" height="100%" overflow="visible" style="display: block;" viewBox="0 0 17.998 17.998" fill="none" xmlns="http://www.w3.org/2000/svg">
<g id="Icon" clip-path="url(#clip0_0_28)">
<path id="Vector" d="M8.64281 1.72106C8.67568 1.65467 8.72644 1.59878 8.78939 1.5597C8.85233 1.52062 8.92494 1.49992 8.99902 1.49992C9.07311 1.49992 9.14572 1.52062 9.20866 1.5597C9.2716 1.59878 9.32237 1.65467 9.35524 1.72106L11.0875 5.22993C11.2017 5.46088 11.3701 5.66069 11.5785 5.81221C11.7868 5.96373 12.0288 6.06243 12.2837 6.09984L16.1577 6.66678C16.2312 6.67741 16.3001 6.70838 16.3568 6.75617C16.4136 6.80396 16.4558 6.86667 16.4787 6.9372C16.5017 7.00774 16.5044 7.08329 16.4867 7.1553C16.4689 7.22732 16.4313 7.29292 16.3782 7.3447L13.5765 10.0729C13.3918 10.253 13.2535 10.4752 13.1737 10.7206C13.0939 10.9659 13.0749 11.2269 13.1183 11.4813L13.7798 15.3358C13.7927 15.4092 13.7848 15.4847 13.7569 15.5538C13.729 15.6229 13.6822 15.6828 13.6219 15.7265C13.5616 15.7703 13.4903 15.7963 13.4159 15.8015C13.3416 15.8066 13.2673 15.7908 13.2016 15.7558L9.73844 13.935C9.51026 13.8152 9.25638 13.7526 8.99865 13.7526C8.74092 13.7526 8.48704 13.8152 8.25885 13.935L4.79648 15.7558C4.73073 15.7906 4.65654 15.8063 4.58234 15.801C4.50814 15.7957 4.43691 15.7697 4.37675 15.726C4.31659 15.6822 4.26991 15.6224 4.24203 15.5535C4.21415 15.4845 4.20619 15.4091 4.21904 15.3358L4.87972 11.482C4.92336 11.2276 4.90446 10.9664 4.82463 10.7209C4.7448 10.4754 4.60646 10.253 4.42152 10.0729L1.61982 7.34545C1.56628 7.29373 1.52833 7.22801 1.51031 7.15578C1.49229 7.08355 1.49492 7.0077 1.51789 6.93689C1.54087 6.86608 1.58328 6.80314 1.64028 6.75525C1.69728 6.70737 1.76659 6.67645 1.8403 6.66603L5.71363 6.09984C5.96879 6.06272 6.21112 5.96415 6.41974 5.81261C6.62837 5.66107 6.79704 5.46111 6.91125 5.22993L8.64281 1.72106Z" fill="var(--fill-0, #D18F17)" stroke="var(--stroke-0, #D18F17)" stroke-width="1.49984" stroke-linecap="round" stroke-linejoin="round"/>
</g>
<defs>
<clipPath id="clip0_0_28">
<rect width="17.998" height="17.998" fill="white"/>
</clipPath>
</defs>
</svg>
