<svg preserveAspectRatio="none" width="100%" height="100%" overflow="visible" style="display: block;" viewBox="0 0 27.998 27.998" fill="none" xmlns="http://www.w3.org/2000/svg">
<g id="Icon">
<path id="Vector" d="M12.8324 25.3499C13.1871 25.5547 13.5895 25.6625 13.999 25.6625C14.4086 25.6625 14.8109 25.5547 15.1656 25.3499L23.3317 20.6836C23.686 20.479 23.9804 20.1848 24.1851 19.8306C24.3899 19.4764 24.4979 19.0745 24.4983 18.6654V9.33268C24.4979 8.92353 24.3899 8.52168 24.1851 8.16745C23.9804 7.81322 23.686 7.51907 23.3317 7.31449L15.1656 2.64815C14.8109 2.44337 14.4086 2.33556 13.999 2.33556C13.5895 2.33556 13.1871 2.44337 12.8324 2.64815L4.66634 7.31449C4.31201 7.51907 4.0177 7.81322 3.81294 8.16745C3.60818 8.52168 3.50018 8.92353 3.49976 9.33268V18.6654C3.50018 19.0745 3.60818 19.4764 3.81294 19.8306C4.0177 20.1848 4.31201 20.479 4.66634 20.6836L12.8324 25.3499Z" stroke="var(--stroke-0, #1D7C5F)" stroke-width="2.33317" stroke-linecap="round" stroke-linejoin="round"/>
<path id="Vector_2" d="M13.999 25.6649V13.999" stroke="var(--stroke-0, #1D7C5F)" stroke-width="2.33317" stroke-linecap="round" stroke-linejoin="round"/>
<path id="Vector_3" d="M3.83807 8.1661L13.999 13.999L24.16 8.1661" stroke="var(--stroke-0, #1D7C5F)" stroke-width="2.33317" stroke-linecap="round" stroke-linejoin="round"/>
<path id="Vector_4" d="M8.74939 4.98132L19.2487 10.9892" stroke="var(--stroke-0, #1D7C5F)" stroke-width="2.33317" stroke-linecap="round" stroke-linejoin="round"/>
</g>
</svg>
